<svg xmlns="http://www.w3.org/2000/svg" xmlns:xlink="http://www.w3.org/1999/xlink" width="500" zoomAndPan="magnify" viewBox="0 0 375 374.999991" height="500" preserveAspectRatio="xMidYMid meet" version="1.0"><defs><clipPath id="58a1aa767e"><path d="M 18.175781 18.175781 L 357.175781 18.175781 L 357.175781 357.175781 L 18.175781 357.175781 Z M 18.175781 18.175781 " clip-rule="nonzero"/></clipPath><clipPath id="5883bbbe5f"><path d="M 40.496094 106.195312 L 311.996094 106.195312 L 311.996094 289.945312 L 40.496094 289.945312 Z M 40.496094 106.195312 " clip-rule="nonzero"/></clipPath></defs><g clip-path="url(#58a1aa767e)"><path fill="#414c6b" d="M 139.25 30.285156 C 139.25 31.078125 139.171875 31.867188 139.015625 32.648438 C 138.859375 33.425781 138.632812 34.183594 138.328125 34.917969 C 138.023438 35.652344 137.648438 36.351562 137.207031 37.011719 C 136.765625 37.671875 136.265625 38.285156 135.703125 38.84375 C 135.140625 39.40625 134.527344 39.910156 133.867188 40.351562 C 133.207031 40.792969 132.507812 41.164062 131.773438 41.46875 C 131.039062 41.773438 130.285156 42.003906 129.503906 42.160156 C 128.722656 42.3125 127.9375 42.390625 127.140625 42.390625 L 54.5 42.390625 C 53.703125 42.390625 52.917969 42.46875 52.136719 42.625 C 51.355469 42.78125 50.601562 43.007812 49.867188 43.3125 C 49.132812 43.617188 48.433594 43.992188 47.773438 44.433594 C 47.113281 44.875 46.5 45.375 45.9375 45.9375 C 45.375 46.5 44.875 47.113281 44.433594 47.773438 C 43.992188 48.433594 43.617188 49.132812 43.3125 49.867188 C 43.007812 50.601562 42.78125 51.355469 42.625 52.136719 C 42.46875 52.917969 42.390625 53.703125 42.390625 54.5 L 42.390625 127.140625 C 42.390625 127.9375 42.3125 128.722656 42.160156 129.503906 C 42.003906 130.285156 41.773438 131.039062 41.46875 131.773438 C 41.164062 132.507812 40.792969 133.207031 40.351562 133.867188 C 39.910156 134.527344 39.40625 135.140625 38.84375 135.703125 C 38.285156 136.265625 37.671875 136.765625 37.011719 137.207031 C 36.351562 137.648438 35.652344 138.023438 34.917969 138.328125 C 34.183594 138.632812 33.425781 138.859375 32.648438 139.015625 C 31.867188 139.171875 31.078125 139.25 30.285156 139.25 C 29.488281 139.25 28.703125 139.171875 27.921875 139.015625 C 27.144531 138.859375 26.386719 138.632812 25.652344 138.328125 C 24.917969 138.023438 24.21875 137.648438 23.558594 137.207031 C 22.898438 136.765625 22.285156 136.265625 21.722656 135.703125 C 21.160156 135.140625 20.660156 134.527344 20.21875 133.867188 C 19.777344 133.207031 19.402344 132.507812 19.097656 131.773438 C 18.792969 131.039062 18.566406 130.285156 18.410156 129.503906 C 18.253906 128.722656 18.175781 127.9375 18.175781 127.140625 L 18.175781 54.5 C 18.175781 53.308594 18.234375 52.121094 18.351562 50.9375 C 18.46875 49.753906 18.644531 48.578125 18.875 47.414062 C 19.109375 46.246094 19.394531 45.09375 19.742188 43.957031 C 20.085938 42.816406 20.488281 41.699219 20.941406 40.597656 C 21.398438 39.5 21.90625 38.425781 22.464844 37.378906 C 23.027344 36.328125 23.636719 35.308594 24.296875 34.320312 C 24.960938 33.332031 25.667969 32.375 26.421875 31.457031 C 27.175781 30.539062 27.976562 29.65625 28.816406 28.816406 C 29.65625 27.976562 30.539062 27.175781 31.457031 26.421875 C 32.375 25.667969 33.332031 24.960938 34.320312 24.296875 C 35.308594 23.636719 36.328125 23.027344 37.378906 22.464844 C 38.425781 21.90625 39.5 21.398438 40.597656 20.941406 C 41.699219 20.488281 42.816406 20.085938 43.957031 19.742188 C 45.09375 19.394531 46.246094 19.109375 47.414062 18.875 C 48.578125 18.644531 49.753906 18.46875 50.9375 18.351562 C 52.121094 18.234375 53.308594 18.175781 54.5 18.175781 L 127.140625 18.175781 C 127.9375 18.175781 128.722656 18.253906 129.503906 18.410156 C 130.285156 18.566406 131.039062 18.792969 131.773438 19.097656 C 132.507812 19.402344 133.207031 19.777344 133.867188 20.21875 C 134.527344 20.660156 135.140625 21.160156 135.703125 21.722656 C 136.265625 22.285156 136.765625 22.898438 137.207031 23.558594 C 137.648438 24.21875 138.023438 24.917969 138.328125 25.652344 C 138.632812 26.386719 138.859375 27.144531 139.015625 27.921875 C 139.171875 28.703125 139.25 29.488281 139.25 30.285156 Z M 320.855469 18.175781 L 248.214844 18.175781 C 247.417969 18.175781 246.628906 18.253906 245.851562 18.410156 C 245.070312 18.566406 244.3125 18.792969 243.578125 19.097656 C 242.84375 19.402344 242.148438 19.777344 241.488281 20.21875 C 240.824219 20.660156 240.214844 21.160156 239.652344 21.722656 C 239.089844 22.285156 238.589844 22.898438 238.144531 23.558594 C 237.703125 24.21875 237.332031 24.917969 237.027344 25.652344 C 236.722656 26.386719 236.492188 27.144531 236.339844 27.921875 C 236.183594 28.703125 236.105469 29.488281 236.105469 30.285156 C 236.105469 31.078125 236.183594 31.867188 236.339844 32.648438 C 236.492188 33.425781 236.722656 34.183594 237.027344 34.917969 C 237.332031 35.652344 237.703125 36.351562 238.144531 37.011719 C 238.589844 37.671875 239.089844 38.285156 239.652344 38.84375 C 240.214844 39.40625 240.824219 39.910156 241.488281 40.351562 C 242.148438 40.792969 242.84375 41.164062 243.578125 41.46875 C 244.3125 41.773438 245.070312 42.003906 245.851562 42.160156 C 246.628906 42.3125 247.417969 42.390625 248.214844 42.390625 L 320.855469 42.390625 C 321.652344 42.390625 322.4375 42.46875 323.21875 42.625 C 323.996094 42.78125 324.753906 43.007812 325.488281 43.3125 C 326.222656 43.617188 326.921875 43.992188 327.582031 44.433594 C 328.242188 44.875 328.855469 45.375 329.417969 45.9375 C 329.980469 46.5 330.480469 47.113281 330.921875 47.773438 C 331.363281 48.433594 331.738281 49.132812 332.042969 49.867188 C 332.347656 50.601562 332.574219 51.355469 332.730469 52.136719 C 332.886719 52.917969 332.964844 53.703125 332.964844 54.5 L 332.964844 127.140625 C 332.964844 127.9375 333.039062 128.722656 333.195312 129.503906 C 333.351562 130.285156 333.582031 131.039062 333.882812 131.773438 C 334.1875 132.507812 334.5625 133.207031 335.003906 133.867188 C 335.445312 134.527344 335.945312 135.140625 336.507812 135.703125 C 337.070312 136.265625 337.683594 136.765625 338.34375 137.207031 C 339.003906 137.648438 339.703125 138.023438 340.4375 138.328125 C 341.171875 138.632812 341.929688 138.859375 342.707031 139.015625 C 343.488281 139.171875 344.273438 139.25 345.070312 139.25 C 345.867188 139.25 346.652344 139.171875 347.433594 139.015625 C 348.210938 138.859375 348.96875 138.632812 349.703125 138.328125 C 350.4375 138.023438 351.136719 137.648438 351.796875 137.207031 C 352.457031 136.765625 353.070312 136.265625 353.632812 135.703125 C 354.195312 135.140625 354.695312 134.527344 355.136719 133.867188 C 355.578125 133.207031 355.953125 132.507812 356.253906 131.773438 C 356.558594 131.039062 356.789062 130.285156 356.945312 129.503906 C 357.101562 128.722656 357.175781 127.9375 357.175781 127.140625 L 357.175781 54.5 C 357.175781 53.308594 357.117188 52.121094 357.003906 50.9375 C 356.886719 49.753906 356.710938 48.578125 356.480469 47.414062 C 356.246094 46.246094 355.957031 45.09375 355.613281 43.957031 C 355.269531 42.816406 354.867188 41.699219 354.414062 40.597656 C 353.957031 39.5 353.449219 38.425781 352.886719 37.378906 C 352.328125 36.328125 351.71875 35.308594 351.054688 34.320312 C 350.394531 33.332031 349.6875 32.375 348.933594 31.457031 C 348.179688 30.539062 347.378906 29.65625 346.539062 28.816406 C 345.699219 27.976562 344.816406 27.175781 343.898438 26.421875 C 342.980469 25.667969 342.023438 24.960938 341.035156 24.296875 C 340.046875 23.636719 339.027344 23.027344 337.976562 22.464844 C 336.929688 21.90625 335.855469 21.398438 334.753906 20.941406 C 333.65625 20.488281 332.539062 20.085938 331.398438 19.742188 C 330.261719 19.394531 329.109375 19.109375 327.941406 18.875 C 326.773438 18.644531 325.601562 18.46875 324.417969 18.351562 C 323.230469 18.234375 322.046875 18.175781 320.855469 18.175781 Z M 127.140625 332.964844 L 54.5 332.964844 C 53.703125 332.964844 52.917969 332.886719 52.136719 332.730469 C 51.355469 332.574219 50.601562 332.347656 49.867188 332.042969 C 49.132812 331.738281 48.433594 331.363281 47.773438 330.921875 C 47.113281 330.480469 46.5 329.980469 45.9375 329.417969 C 45.375 328.855469 44.875 328.242188 44.433594 327.582031 C 43.992188 326.921875 43.617188 326.222656 43.3125 325.488281 C 43.007812 324.753906 42.78125 323.996094 42.625 323.21875 C 42.46875 322.4375 42.390625 321.652344 42.390625 320.855469 L 42.390625 248.214844 C 42.390625 247.417969 42.3125 246.628906 42.160156 245.851562 C 42.003906 245.070312 41.773438 244.3125 41.46875 243.578125 C 41.164062 242.84375 40.792969 242.148438 40.351562 241.488281 C 39.910156 240.824219 39.40625 240.214844 38.84375 239.652344 C 38.285156 239.089844 37.671875 238.589844 37.011719 238.144531 C 36.351562 237.703125 35.652344 237.332031 34.917969 237.027344 C 34.183594 236.722656 33.425781 236.492188 32.648438 236.339844 C 31.867188 236.183594 31.078125 236.105469 30.285156 236.105469 C 29.488281 236.105469 28.703125 236.183594 27.921875 236.339844 C 27.144531 236.492188 26.386719 236.722656 25.652344 237.027344 C 24.917969 237.332031 24.21875 237.703125 23.558594 238.144531 C 22.898438 238.589844 22.285156 239.089844 21.722656 239.652344 C 21.160156 240.214844 20.660156 240.824219 20.21875 241.488281 C 19.777344 242.148438 19.402344 242.84375 19.097656 243.578125 C 18.792969 244.3125 18.566406 245.070312 18.410156 245.851562 C 18.253906 246.628906 18.175781 247.417969 18.175781 248.214844 L 18.175781 320.855469 C 18.175781 322.046875 18.234375 323.230469 18.351562 324.417969 C 18.46875 325.601562 18.644531 326.773438 18.875 327.941406 C 19.109375 329.109375 19.394531 330.261719 19.742188 331.398438 C 20.085938 332.539062 20.488281 333.65625 20.941406 334.753906 C 21.398438 335.855469 21.90625 336.929688 22.464844 337.976562 C 23.027344 339.027344 23.636719 340.046875 24.296875 341.035156 C 24.960938 342.023438 25.667969 342.980469 26.421875 343.898438 C 27.175781 344.816406 27.976562 345.699219 28.816406 346.539062 C 29.65625 347.378906 30.539062 348.179688 31.457031 348.933594 C 32.375 349.6875 33.332031 350.394531 34.320312 351.054688 C 35.308594 351.71875 36.328125 352.328125 37.378906 352.886719 C 38.425781 353.449219 39.5 353.957031 40.597656 354.414062 C 41.699219 354.867188 42.816406 355.269531 43.957031 355.613281 C 45.09375 355.957031 46.246094 356.246094 47.414062 356.480469 C 48.578125 356.710938 49.753906 356.886719 50.9375 357.003906 C 52.121094 357.117188 53.308594 357.175781 54.5 357.175781 L 127.140625 357.175781 C 127.9375 357.175781 128.722656 357.101562 129.503906 356.945312 C 130.285156 356.789062 131.039062 356.558594 131.773438 356.253906 C 132.507812 355.953125 133.207031 355.578125 133.867188 355.136719 C 134.527344 354.695312 135.140625 354.195312 135.703125 353.632812 C 136.265625 353.070312 136.765625 352.457031 137.207031 351.796875 C 137.648438 351.136719 138.023438 350.4375 138.328125 349.703125 C 138.632812 348.96875 138.859375 348.210938 139.015625 347.433594 C 139.171875 346.652344 139.25 345.867188 139.25 345.070312 C 139.25 344.273438 139.171875 343.488281 139.015625 342.707031 C 138.859375 341.929688 138.632812 341.171875 138.328125 340.4375 C 138.023438 339.703125 137.648438 339.003906 137.207031 338.34375 C 136.765625 337.683594 136.265625 337.070312 135.703125 336.507812 C 135.140625 335.945312 134.527344 335.445312 133.867188 335.003906 C 133.207031 334.5625 132.507812 334.1875 131.773438 333.882812 C 131.039062 333.582031 130.285156 333.351562 129.503906 333.195312 C 128.722656 333.039062 127.9375 332.964844 127.140625 332.964844 Z M 345.070312 236.105469 C 344.273438 236.105469 343.488281 236.183594 342.707031 236.339844 C 341.929688 236.492188 341.171875 236.722656 340.4375 237.027344 C 339.703125 237.332031 339.003906 237.703125 338.34375 238.144531 C 337.683594 238.589844 337.070312 239.089844 336.507812 239.652344 C 335.945312 240.214844 335.445312 240.824219 335.003906 241.488281 C 334.5625 242.148438 334.1875 242.84375 333.882812 243.578125 C 333.582031 244.3125 333.351562 245.070312 333.195312 245.851562 C 333.039062 246.632812 332.964844 247.417969 332.964844 248.214844 L 332.964844 320.855469 C 332.964844 321.652344 332.886719 322.4375 332.730469 323.21875 C 332.574219 323.996094 332.347656 324.753906 332.042969 325.488281 C 331.738281 326.222656 331.363281 326.921875 330.921875 327.582031 C 330.480469 328.242188 329.980469 328.855469 329.417969 329.417969 C 328.855469 329.980469 328.242188 330.480469 327.582031 330.921875 C 326.921875 331.363281 326.222656 331.738281 325.488281 332.042969 C 324.753906 332.347656 323.996094 332.574219 323.21875 332.730469 C 322.4375 332.886719 321.652344 332.964844 320.855469 332.964844 L 260.320312 332.964844 C 259.523438 332.964844 258.738281 333.039062 257.957031 333.195312 C 257.179688 333.351562 256.421875 333.582031 255.6875 333.882812 C 254.953125 334.1875 254.253906 334.5625 253.59375 335.003906 C 252.933594 335.445312 252.320312 335.945312 251.757812 336.507812 C 251.195312 337.070312 250.695312 337.683594 250.253906 338.34375 C 249.8125 339.003906 249.4375 339.703125 249.132812 340.4375 C 248.832031 341.171875 248.601562 341.929688 248.445312 342.707031 C 248.289062 343.488281 248.214844 344.273438 248.214844 345.070312 C 248.214844 345.867188 248.289062 346.652344 248.445312 347.433594 C 248.601562 348.210938 248.832031 348.96875 249.132812 349.703125 C 249.4375 350.4375 249.8125 351.136719 250.253906 351.796875 C 250.695312 352.457031 251.195312 353.070312 251.757812 353.632812 C 252.320312 354.195312 252.933594 354.695312 253.59375 355.136719 C 254.253906 355.578125 254.953125 355.953125 255.6875 356.253906 C 256.421875 356.558594 257.179688 356.789062 257.957031 356.945312 C 258.738281 357.101562 259.523438 357.175781 260.320312 357.175781 L 320.855469 357.175781 C 322.046875 357.175781 323.230469 357.117188 324.417969 357.003906 C 325.601562 356.886719 326.773438 356.710938 327.941406 356.480469 C 329.109375 356.246094 330.261719 355.957031 331.398438 355.613281 C 332.539062 355.269531 333.65625 354.867188 334.753906 354.414062 C 335.855469 353.957031 336.929688 353.449219 337.976562 352.886719 C 339.027344 352.328125 340.046875 351.71875 341.035156 351.054688 C 342.023438 350.394531 342.980469 349.6875 343.898438 348.933594 C 344.816406 348.179688 345.699219 347.378906 346.539062 346.539062 C 347.378906 345.699219 348.179688 344.816406 348.933594 343.898438 C 349.6875 342.980469 350.394531 342.023438 351.054688 341.035156 C 351.71875 340.046875 352.328125 339.027344 352.886719 337.976562 C 353.449219 336.929688 353.957031 335.855469 354.414062 334.753906 C 354.867188 333.65625 355.269531 332.539062 355.613281 331.398438 C 355.957031 330.261719 356.246094 329.109375 356.480469 327.941406 C 356.710938 326.773438 356.886719 325.601562 357.003906 324.417969 C 357.117188 323.230469 357.175781 322.046875 357.175781 320.855469 L 357.175781 248.214844 C 357.175781 247.417969 357.101562 246.628906 356.945312 245.851562 C 356.789062 245.070312 356.558594 244.3125 356.253906 243.578125 C 355.953125 242.84375 355.578125 242.148438 355.136719 241.488281 C 354.695312 240.824219 354.195312 240.214844 353.632812 239.652344 C 353.070312 239.089844 352.457031 238.589844 351.796875 238.144531 C 351.136719 237.703125 350.4375 237.332031 349.703125 237.027344 C 348.96875 236.722656 348.210938 236.492188 347.433594 236.339844 C 346.652344 236.183594 345.867188 236.105469 345.070312 236.105469 Z M 345.070312 236.105469 " fill-opacity="1" fill-rule="nonzero"/></g><path fill="#a375f4" d="M 132.53125 272.445312 L 307.386719 110.570312 L 158.761719 219.945312 Z M 132.53125 272.445312 " fill-opacity="1" fill-rule="nonzero"/><path fill="#b78dce" d="M 123.789062 202.445312 L 307.386719 110.570312 L 45.105469 167.445312 Z M 123.789062 202.445312 " fill-opacity="1" fill-rule="nonzero"/><path fill="#7353ad" d="M 123.789062 202.445312 L 132.53125 272.445312 L 158.761719 219.945312 L 307.386719 110.570312 L 123.789062 202.445312 " fill-opacity="1" fill-rule="nonzero"/><path fill="#b78dce" d="M 158.761719 219.945312 L 263.675781 285.570312 L 307.386719 110.570312 Z M 158.761719 219.945312 " fill-opacity="1" fill-rule="nonzero"/><g clip-path="url(#5883bbbe5f)"><path fill="#414c6b" d="M 260.890625 278.667969 L 180.003906 228.0625 L 166.546875 219.65625 L 279.65625 136.410156 L 300.199219 121.285156 Z M 146.773438 253.734375 L 160.519531 226.203125 L 170.441406 232.40625 Z M 274.347656 122.210938 L 123.671875 197.609375 L 59.105469 168.882812 Z M 156.046875 216.527344 C 155.976562 216.578125 155.925781 216.648438 155.875 216.699219 C 155.464844 217.058594 155.140625 217.46875 154.902344 217.929688 C 154.886719 217.945312 154.867188 217.964844 154.851562 217.980469 L 135.078125 257.5625 L 128.519531 204.976562 L 263.554688 137.402344 L 156.164062 216.425781 C 156.132812 216.460938 156.097656 216.496094 156.046875 216.527344 Z M 311.726562 110.519531 C 311.726562 110.347656 311.707031 110.195312 311.691406 110.023438 C 311.671875 109.855469 311.621094 109.699219 311.589844 109.527344 C 311.570312 109.496094 311.570312 109.445312 311.554688 109.410156 C 311.535156 109.308594 311.554688 109.222656 311.519531 109.117188 C 311.503906 109.101562 311.484375 109.085938 311.484375 109.066406 C 311.417969 108.898438 311.316406 108.742188 311.230469 108.570312 C 311.179688 108.488281 311.160156 108.382812 311.109375 108.28125 C 311.074219 108.230469 311.007812 108.195312 310.972656 108.128906 C 310.886719 108.023438 310.835938 107.90625 310.75 107.785156 C 310.667969 107.683594 310.546875 107.613281 310.445312 107.511719 C 310.375 107.445312 310.308594 107.375 310.238281 107.324219 C 310.121094 107.222656 310.035156 107.121094 309.914062 107.035156 C 309.878906 107 309.863281 106.964844 309.828125 106.929688 C 309.761719 106.898438 309.691406 106.878906 309.640625 106.863281 C 309.488281 106.761719 309.335938 106.710938 309.164062 106.625 C 308.976562 106.539062 308.789062 106.417969 308.582031 106.367188 C 308.582031 106.367188 308.582031 106.367188 308.566406 106.367188 C 308.480469 106.332031 308.378906 106.351562 308.292969 106.332031 C 308.105469 106.300781 307.933594 106.28125 307.746094 106.265625 C 307.542969 106.246094 307.335938 106.214844 307.148438 106.230469 C 307.011719 106.230469 306.875 106.265625 306.757812 106.28125 C 306.652344 106.300781 306.550781 106.28125 306.464844 106.300781 L 44.183594 163.175781 C 42.320312 163.566406 40.957031 165.121094 40.75 167.003906 C 40.5625 168.882812 41.605469 170.675781 43.328125 171.445312 L 119.761719 205.4375 L 128.195312 272.992188 C 128.210938 273.0625 128.246094 273.128906 128.265625 273.214844 C 128.296875 273.4375 128.367188 273.644531 128.453125 273.847656 C 128.535156 274.105469 128.621094 274.34375 128.757812 274.566406 C 128.84375 274.753906 128.980469 274.90625 129.101562 275.078125 C 129.269531 275.300781 129.460938 275.503906 129.679688 275.695312 C 129.75 275.761719 129.800781 275.863281 129.886719 275.933594 C 129.972656 276 130.074219 276.019531 130.175781 276.085938 C 130.382812 276.222656 130.601562 276.324219 130.824219 276.429688 C 131.046875 276.515625 131.253906 276.597656 131.472656 276.652344 C 131.59375 276.683594 131.679688 276.734375 131.796875 276.753906 C 132.039062 276.804688 132.292969 276.820312 132.53125 276.820312 C 133.011719 276.820312 133.488281 276.71875 133.933594 276.566406 C 134.050781 276.515625 134.171875 276.460938 134.308594 276.410156 C 134.632812 276.257812 134.941406 276.070312 135.230469 275.832031 C 135.300781 275.777344 135.382812 275.761719 135.453125 275.695312 L 178.160156 237.242188 L 261.351562 289.28125 C 262.070312 289.722656 262.871094 289.945312 263.675781 289.945312 C 264.21875 289.945312 264.785156 289.84375 265.3125 289.621094 C 266.609375 289.109375 267.585938 288 267.910156 286.632812 L 311.621094 111.632812 C 311.640625 111.597656 311.621094 111.546875 311.640625 111.511719 C 311.671875 111.359375 311.65625 111.222656 311.671875 111.066406 C 311.707031 110.878906 311.726562 110.707031 311.726562 110.519531 " fill-opacity="1" fill-rule="nonzero"/></g></svg>